<svg xmlns="http://www.w3.org/2000/svg" viewBox="0 0 800 450" width="100%" height="100%">
  <g transform="translate(0, -10)">
    <path 
      d="M 330 80 
         L 365 80 
         L 425 200 
         L 440 170 
         L 455 180 
         L 435 220 
         A 15 15 0 0 1 400 220 
         L 330 80 Z" 
      fill="#FC6C5F" 
    />

    <path 
      d="M 435 75 
         L 390 120 
         L 400 130 
         L 435 95 
         L 465 155 
         Q 495 125 540 105 
         A 5 5 0 0 1 545 115 
         Q 510 140 485 175 
         L 470 145 
         L 470 95 
         L 455 95 
         L 455 115 
         L 435 75 Z" 
      fill="#FC6C5F" 
    />
  </g>

  <g text-anchor="middle">
    <text x="437.5" y="310" 
          font-family="'Montserrat', 'Inter', system-ui, -apple-system, sans-serif" 
          font-size="76" 
          font-weight="800" 
          letter-spacing="-1.5">
      <tspan fill="#334155">Villa</tspan><tspan fill="#FC6C5F">Ease</tspan>
    </text>
    
    <text x="437.5" y="355" 
          font-family="'Inter', system-ui, -apple-system, sans-serif" 
          font-size="24" 
          font-weight="500" 
          fill="#475569" 
          letter-spacing="0.5">
      Premium Hospitality Management
    </text>
  </g>
</svg>
