<?xml version="1.0" encoding="UTF-8"?>
<svg version="1.1" xmlns="http://www.w3.org/2000/svg" width="681" height="221">
<path d="M0 0 C224.73 0 449.46 0 681 0 C681 72.93 681 145.86 681 221 C456.27 221 231.54 221 0 221 C0 148.07 0 75.14 0 0 Z " fill="#FDFDFD" transform="translate(0,0)"/>
<path d="M0 0 C3.50436989 1.58315063 6.38053351 3.67720321 9.4375 6 C11.00757813 7.19109375 11.00757813 7.19109375 12.609375 8.40625 C13.73991926 9.27039403 14.87011615 10.13499266 16 11 C16.59748047 11.45632812 17.19496094 11.91265625 17.81054688 12.3828125 C28.71648756 20.71648756 28.71648756 20.71648756 30 22 C29.82597656 23.87945312 29.82597656 23.87945312 29.6484375 25.796875 C29.27213257 31.05600519 29.04594622 36.01944888 31 41 C36.78906535 47.67552565 45.46462061 51.49436057 53.08984375 55.70703125 C56.22600796 59.47171099 55.52738662 63.52910626 55.3125 68.25 C55.28994141 69.18585938 55.26738281 70.12171875 55.24414062 71.0859375 C55.18533007 73.39131134 55.09565154 75.69586068 55 78 C52.03 78 49.06 78 46 78 C46.09023437 77.03320312 46.18046875 76.06640625 46.2734375 75.0703125 C46.65847105 67.71129047 46.65847105 67.71129047 43.57861328 61.30810547 C39.66710582 57.91032883 35.53473613 55.65547611 31 53 C30.67 63.23 30.34 73.46 30 84 C27.36 84 24.72 84 22 84 C22 94.23 22 104.46 22 115 C13.18145756 108.38609317 4.61783625 101.50895217 -3.9375 94.5625 C-4.62424805 94.0051416 -5.31099609 93.4477832 -6.01855469 92.87353516 C-9.13493782 90.34119628 -12.24541719 87.80294936 -15.33203125 85.234375 C-16.29496094 84.43515625 -17.25789063 83.6359375 -18.25 82.8125 C-19.08015625 82.11769531 -19.9103125 81.42289062 -20.765625 80.70703125 C-23.17312219 78.75708393 -23.17312219 78.75708393 -27 77 C-27 68.75 -27 60.5 -27 52 C-28.711875 53.0725 -30.42375 54.145 -32.1875 55.25 C-33.15042969 55.85328125 -34.11335938 56.4565625 -35.10546875 57.078125 C-36.06066406 57.71234375 -37.01585938 58.3465625 -38 59 C-38.928125 59.5775 -39.85625 60.155 -40.8125 60.75 C-43.80558125 63.82859786 -43.7777448 66.66433371 -43.8125 70.75 C-43.85020508 71.79607422 -43.85020508 71.79607422 -43.88867188 72.86328125 C-43.94728962 74.57491949 -43.97657053 76.2875186 -44 78 C-46.97 78 -49.94 78 -53 78 C-54.07467449 71.3463055 -55.10095711 64.53631102 -53 58 C-48.00162071 51.52439081 -39.96201943 47.65140016 -32.86352539 43.85839844 C-30.29549162 42.32324224 -28.26605202 41.03427561 -27.49438477 38.03442383 C-27.37305476 35.70811979 -27.44183426 33.4509034 -27.5625 31.125 C-27.52011632 22.90908582 -27.52011632 22.90908582 -25.63671875 19.6171875 C-23.53320336 17.81417431 -21.36895345 16.43854877 -19 15 C-17.33790021 13.76622259 -15.71092511 12.49332259 -14.08300781 11.21484375 C-12.4512631 9.93482446 -10.80276846 8.680301 -9.1484375 7.4296875 C-6.02982996 5.02302014 -3.01000605 2.53997507 0 0 Z " fill="#1B2832" transform="translate(142,33)"/>
<path d="M0 0 C27 0 27 0 36 8 C37.77933899 9.4939733 39.56884839 10.97605556 41.375 12.4375 C42.7671875 13.56865234 42.7671875 13.56865234 44.1875 14.72265625 C45.115625 15.47417969 46.04375 16.22570312 47 17 C53.46344555 22.25154951 59.86462333 27.56602789 66.20751953 32.96191406 C70.46325902 36.57168168 74.79345902 40.07870149 79.171875 43.5390625 C81 45 81 45 82 46 C82.33 30.82 82.66 15.64 83 0 C91.25 0 99.5 0 108 0 C108 22.77 108 45.54 108 69 C77.32215718 69 77.32215718 69 60.125 54.125 C58.93386016 53.09995076 57.7424474 52.07521858 56.55078125 51.05078125 C55.96119629 50.54369629 55.37161133 50.03661133 54.76416016 49.51416016 C40.83157996 37.16428321 40.83157996 37.16428321 26 26 C26 40.19 26 54.38 26 69 C17.42 69 8.84 69 0 69 C0 46.23 0 23.46 0 0 Z " fill="#1A252E" transform="translate(89,117)"/>
<path d="M0 0 C5.18883769 1.80963023 8.28984881 4.83496099 11 9.5625 C14.49558565 17.49842419 14.07102922 26.07380676 10.98046875 34.09765625 C8.63004302 38.65804402 4.6561764 41.98937837 0 44 C-6.81255994 45.03641914 -8.90611629 44.06258914 -15 40 C-15.33 46.27 -15.66 52.54 -16 59 C-20.29 59 -24.58 59 -29 59 C-29 39.86 -29 20.72 -29 1 C-25.04 1 -21.08 1 -17 1 C-16.67 2.65 -16.34 4.3 -16 6 C-15.21625 5.195625 -14.4325 4.39125 -13.625 3.5625 C-9.3532463 -0.60754528 -5.78590134 -0.77638293 0 0 Z " fill="#232E37" transform="translate(544,93)"/>
<path d="M0 0 C12 0 12 0 14.53515625 2.0625 C15.03917969 3.031875 15.54320312 4.00125 16.0625 5 C16.98289063 6.62421875 16.98289063 6.62421875 17.921875 8.28125 C18.40624023 9.17263672 18.40624023 9.17263672 18.90039062 10.08203125 C20.97677109 13.70371085 23.42206577 17.08117329 25.8125 20.5 C26.73590362 21.84359434 27.6590925 23.18733629 28.58203125 24.53125 C30.33220499 27.0751363 32.14345448 29.52460598 34 32 C34.33 21.44 34.66 10.88 35 0 C38.96 0 42.92 0 47 0 C47 18.48 47 36.96 47 56 C36 56 36 56 33.39355469 53.95556641 C32.54132324 52.54283447 32.54132324 52.54283447 31.671875 51.1015625 C31.01703125 50.06386719 30.3621875 49.02617187 29.6875 47.95703125 C29.048125 46.85746094 28.40875 45.75789063 27.75 44.625 C26.43317598 42.4916414 25.11547564 40.35882345 23.796875 38.2265625 C23.23323242 37.27346191 22.66958984 36.32036133 22.08886719 35.33837891 C19.2350238 30.77743285 16.08534738 26.40763911 13 22 C12.67 33.22 12.34 44.44 12 56 C8.04 56 4.08 56 0 56 C0 37.52 0 19.04 0 0 Z " fill="#1C2830" transform="translate(230,80)"/>
<path d="M0 0 C4.1441756 2.17112141 6.50843722 4.40407182 9 8.375 C9.8125 12.25 9.8125 12.25 10 15.375 C6.29065705 15.66279385 2.69989621 15.82412035 -1 15.375 C-3.5 12.9375 -3.5 12.9375 -5 10.375 C-8.59264452 9.17745183 -11.22717474 9.04405042 -15 9.375 C-17.60720318 10.89777007 -17.60720318 10.89777007 -19 13.375 C-19.40802691 16.00322118 -19.40802691 16.00322118 -18 18.375 C-13.98847963 20.64238108 -9.9464689 21.6671974 -5.5 22.8125 C0.63037663 24.44390338 5.02218023 26.24504025 9.4375 31 C11.5620997 35.58913536 11.77901789 39.40064617 11 44.375 C8.52091329 49.84964982 4.34385175 52.87722199 -1 55.375 C-9.78120301 57.62035647 -18.01867673 57.34101771 -25.9375 52.78515625 C-30.47349193 49.68384358 -32.03753817 46.79738585 -33.25 41.5625 C-33.4975 40.180625 -33.745 38.79875 -34 37.375 C-30.04 37.375 -26.08 37.375 -22 37.375 C-21.5875 38.32375 -21.175 39.2725 -20.75 40.25 C-19.28550642 43.31446871 -19.28550642 43.31446871 -17.3125 44.75 C-12.66318753 46.00657094 -7.58359439 45.9028648 -3 44.375 C-2.67 42.065 -2.34 39.755 -2 37.375 C-5.45699087 34.28465967 -8.77863083 33.52280307 -13.25 32.5 C-20.52182304 30.69519877 -26.47738967 28.8435892 -31 22.625 C-32.72327022 17.02437179 -33.00740915 12.47041104 -30.4375 7.125 C-22.48129314 -1.85123338 -11.41785524 -4.63249682 0 0 Z " fill="#1E2932" transform="translate(410,80.625)"/>
<path d="M0 0 C4.95979287 2.85749384 8.8723289 6.99198669 10.6875 12.4375 C11.95876523 28.76417771 11.95876523 28.76417771 7.11328125 34.9609375 C2.99878768 39.22197467 -0.95727129 42.0061851 -6.92578125 42.7734375 C-14.06303607 42.87672628 -19.49359294 41.99337009 -24.84375 37.01171875 C-30.3835011 30.77949876 -30.76860968 24.93733145 -30.6171875 16.88671875 C-30.11148199 11.16187307 -28.61702636 7.54727765 -24.37109375 3.66015625 C-17.20483208 -1.94879625 -8.63554478 -3.90099899 0 0 Z " fill="#1E2932" transform="translate(360.3125,94.5625)"/>
<path d="M0 0 C3.45509449 2.33797387 5.36740743 4.17253479 6.69140625 8.14453125 C6.77594495 10.58560885 6.80746411 12.99712338 6.7890625 15.4375 C6.78764755 16.14352859 6.7862326 16.84955719 6.78477478 17.57698059 C6.77918389 19.82870751 6.76663313 22.08033446 6.75390625 24.33203125 C6.74889007 25.8600246 6.74432737 27.38801952 6.74023438 28.91601562 C6.72921745 32.6588926 6.71195912 36.40169498 6.69140625 40.14453125 C2.73140625 40.14453125 -1.22859375 40.14453125 -5.30859375 40.14453125 C-5.63859375 39.15453125 -5.96859375 38.16453125 -6.30859375 37.14453125 C-6.79328125 37.43328125 -7.27796875 37.72203125 -7.77734375 38.01953125 C-12.93117382 40.87396021 -16.41864598 41.90452451 -22.30859375 41.14453125 C-26.66803528 38.92368368 -29.47689839 36.72376966 -31.30859375 32.14453125 C-31.96231965 27.71372236 -31.89033777 24.3080193 -29.87109375 20.26953125 C-23.37345962 14.88124929 -14.4087376 14.30952656 -6.30859375 13.14453125 C-6.68763583 9.85377129 -6.68763583 9.85377129 -8.30859375 7.14453125 C-12.33908108 6.82813728 -12.33908108 6.82813728 -16.30859375 7.14453125 C-16.78167969 7.64082031 -17.25476563 8.13710937 -17.7421875 8.6484375 C-19.30859375 10.14453125 -19.30859375 10.14453125 -21.7890625 10.4375 C-22.68238281 10.40269531 -23.57570313 10.36789063 -24.49609375 10.33203125 C-25.39714844 10.30496094 -26.29820312 10.27789062 -27.2265625 10.25 C-27.91363281 10.21519531 -28.60070312 10.18039063 -29.30859375 10.14453125 C-29.11406039 5.96206392 -28.59926957 4.44196697 -25.62109375 1.39453125 C-17.9026235 -4.28027785 -8.26590145 -4.7257578 0 0 Z " fill="#202B34" transform="translate(501.30859375,95.85546875)"/>
<path d="M0 0 C5.05548527 2.26961092 8.64113601 5.7636838 11.71484375 10.34765625 C12.71484375 13.34765625 12.71484375 13.34765625 12.71484375 24.34765625 C3.47484375 24.34765625 -5.76515625 24.34765625 -15.28515625 24.34765625 C-14.62515625 26.98765625 -13.96515625 29.62765625 -13.28515625 32.34765625 C-9.67942921 33.54956526 -7.07491275 33.6743594 -3.28515625 33.34765625 C-2.54265625 32.68765625 -1.80015625 32.02765625 -1.03515625 31.34765625 C3.22436894 28.24981975 7.61313283 29.02600723 12.71484375 29.34765625 C11.13475776 35.52435601 8.2858532 38.52913737 3.15234375 42.16015625 C-3.28960863 44.38555798 -10.43206778 44.57550377 -16.72265625 41.72265625 C-22.04613151 38.59054918 -25.38034694 34.23676102 -27.28515625 28.34765625 C-28.0981938 20.70510326 -28.59227844 13.21106255 -23.71484375 6.859375 C-16.98242811 -0.25932678 -9.61950498 -2.74608091 0 0 Z " fill="#1F2A33" transform="translate(589.28515625,93.65234375)"/>
<path d="M0 0 C5.65296494 2.57929959 8.87015336 6.21044148 11.9921875 11.5625 C12.6796875 14.3125 12.6796875 14.3125 12.6796875 24.3125 C3.1096875 24.3125 -6.4603125 24.3125 -16.3203125 24.3125 C-13.48697917 31.97916667 -13.48697917 31.97916667 -10.3203125 33.3125 C-6.94630672 33.72975678 -6.94630672 33.72975678 -3.3203125 33.3125 C-2.5778125 32.6525 -1.8353125 31.9925 -1.0703125 31.3125 C3.18921269 28.2146635 7.57797658 28.99085098 12.6796875 29.3125 C11.76896065 34.13088045 9.18949647 37.01008883 5.6796875 40.3125 C-0.23515959 43.97970519 -6.48004744 44.28448986 -13.3203125 43.3125 C-19.28073292 40.96504107 -22.96903938 36.9633859 -26.39453125 31.64453125 C-28.74694407 25.71883313 -28.46564856 16.56866201 -26.375 10.625 C-20.51529679 0.89568146 -11.00749371 -3.26147962 0 0 Z " fill="#1F2A33" transform="translate(312.3203125,93.6875)"/>
<path d="M0 0 C3.87960947 2.25113142 6.83345278 5.29454705 8.625 9.4375 C8.625 11.0875 8.625 12.7375 8.625 14.4375 C4.995 14.4375 1.365 14.4375 -2.375 14.4375 C-3.035 13.1175 -3.695 11.7975 -4.375 10.4375 C-7.48361908 8.88319046 -11.03324747 8.55077755 -14.375 9.4375 C-17.29850396 13.05237314 -17.76264649 15.92762524 -17.6875 20.5 C-17.68363281 21.52222656 -17.67976563 22.54445313 -17.67578125 23.59765625 C-17.37798563 26.40931098 -16.91199496 28.08584341 -15.375 30.4375 C-12.38905576 31.93047212 -9.66646376 31.55505228 -6.375 31.4375 C-3.71063616 30.38213635 -3.71063616 30.38213635 -2.375 25.4375 C1.255 25.4375 4.885 25.4375 8.625 25.4375 C9.09893055 29.32373053 8.72094873 31.8169339 6.625 35.0625 C2.93853643 39.70662031 -1.18898703 41.98699962 -7.0546875 42.81640625 C-13.31764036 43.0853142 -18.28145939 42.19977432 -23.375 38.4375 C-27.71388956 34.39746253 -30.104325 30.07186015 -30.7109375 24.16796875 C-30.85843115 10.79029453 -30.85843115 10.79029453 -26.375 5.4375 C-18.8869 -1.41780282 -9.75870709 -4.34959516 0 0 Z " fill="#202B34" transform="translate(456.375,94.5625)"/>
<path d="M0 0 C4.455 2.97 4.455 2.97 9 6 C10.15628906 6.59941406 11.31257812 7.19882812 12.50390625 7.81640625 C16.75878418 10.24543618 20.12091381 12.46587444 21.78662109 17.26757812 C23.10729584 23.55787638 23.28071567 29.92368448 21 36 C15.88479832 42.96600115 7.82861681 46.86855328 0 50 C0 33.5 0 17 0 0 Z " fill="#F8F9F9" transform="translate(142,44)"/>
<path d="M0 0 C18.33236152 9.16618076 18.33236152 9.16618076 24 17 C26.38889719 25.10769624 25.27160317 33.7590333 24 42 C21.30407712 40.72940622 18.99040188 39.34905223 16.65234375 37.50390625 C16.04712891 37.02759766 15.44191406 36.55128906 14.81835938 36.06054688 C13.88733398 35.31901367 13.88733398 35.31901367 12.9375 34.5625 C12.31294922 34.07201172 11.68839844 33.58152344 11.04492188 33.07617188 C6.3234155 29.34230184 6.3234155 29.34230184 4.48657227 27.39819336 C2.93876254 25.74646825 2.93876254 25.74646825 0 25 C0 16.75 0 8.5 0 0 Z " fill="#182530" transform="translate(115,85)"/>
<path d="M0 0 C5.37043658 2.88322274 9.9859038 6.19589969 14.6875 10.0625 C16.58804804 11.60893205 18.4890517 13.15429938 20.39990234 14.68798828 C21.66508854 15.72538691 22.88317252 16.82020713 24.08203125 17.93359375 C26.52527146 19.55277708 26.52527146 19.55277708 32 18 C32 31.86 32 45.72 32 60 C24.30366946 54.86911297 24.30366946 54.86911297 23 53 C22.9609375 50.58666992 22.9609375 50.58666992 23.375 47.73046875 C24.95508947 36.12674837 24.95508947 36.12674837 21.22900391 25.51953125 C16.73303603 21.275755 11.58322195 18.19950359 6.19458008 15.21923828 C3.47325117 13.70735525 1.15308915 12.26522921 -1 10 C-1.26953125 7.421875 -1.26953125 7.421875 -0.8125 4.75 C-0.60560547 3.41195312 -0.60560547 3.41195312 -0.39453125 2.046875 C-0.26433594 1.37140625 -0.13414063 0.6959375 0 0 Z " fill="#186AF0" transform="translate(115,74)"/>
<path d="M0 0 C12.05357143 -0.53571429 12.05357143 -0.53571429 15.6875 1.875 C18.12837622 4.11796734 18.90373392 4.95403201 19.203125 8.20703125 C19.36411333 17.15529906 19.36411333 17.15529906 16 21 C11.12489006 24.16882146 5.59822258 23.12170049 0 23 C0 15.41 0 7.82 0 0 Z " fill="#515458" transform="translate(583,157)"/>
<path d="M0 0 C3.34023286 1.05264381 4.41443874 2.75110304 6.21875 5.69921875 C7.13803101 11.09999466 7.42000219 17.53189343 4.65625 22.44921875 C2.21875 24.69921875 2.21875 24.69921875 -1.21875 25.88671875 C-4.78125 25.69921875 -4.78125 25.69921875 -7.65625 23.38671875 C-11.77415096 18.17878519 -11.35339601 13.16110308 -10.78125 6.69921875 C-9.19586331 0.87185144 -5.52766445 0.02839554 0 0 Z " fill="#F6F6F6" transform="translate(352.78125,102.30078125)"/>
<path d="M0 0 C2.69990662 1.79993774 4.5418865 3.083773 6 6 C7.0198411 16.23184837 7.0198411 16.23184837 4.0625 20.625 C1.14332071 23.98647918 1.14332071 23.98647918 -2.3125 24.3125 C-6 24 -6 24 -8.375 22.125 C-12.24874858 17.05932879 -11.66915358 11.14404654 -11 5 C-8.03117627 0.37212772 -5.44902165 -1.02169156 0 0 Z " fill="#F7F8F7" transform="translate(539,103)"/>
<path d="M0 0 C2.23376132 1.67796762 2.91939555 2.56502646 3.43359375 5.33984375 C3.44399112 12.25409492 3.44399112 12.25409492 1.4375 15.625 C-1.82242096 17.46392977 -4.32112194 17.28299062 -8 17 C-8.33 19.31 -8.66 21.62 -9 24 C-9.99 24 -10.98 24 -12 24 C-12 16.08 -12 8.16 -12 0 C-4.61538462 -1.23076923 -4.61538462 -1.23076923 0 0 Z " fill="#525559" transform="translate(329,163)"/>
<path d="M0 0 C1.8975 -0.061875 3.795 -0.12375 5.75 -0.1875 C7.35101563 -0.23970703 7.35101563 -0.23970703 8.984375 -0.29296875 C12.35426215 0.03441666 13.69119008 0.54792264 16 3 C16.69292993 5.70624604 16.48640192 8.25898213 16 11 C14.45661909 13.17476401 13.36334727 13.81832637 11 15 C8.6670134 15.04022391 6.33293334 15.04320247 4 15 C4 17.64 4 20.28 4 23 C2.68 23 1.36 23 0 23 C0 15.41 0 7.82 0 0 Z " fill="#65686B" transform="translate(230,157)"/>
<path d="M0 0 C3.7742893 1.16659851 5.30801297 1.74050024 7.4375 5.0625 C8.02401804 9.68132953 8.01092659 11.91564682 5.9375 16.0625 C2.90828078 18.48587538 1.14972167 18.80888885 -2.65625 18.5390625 C-4.5625 18.0625 -4.5625 18.0625 -7.0625 16.0625 C-8.98142757 12.22464487 -9.52723538 9.26840773 -8.5625 5.0625 C-5.92505032 1.14628685 -4.76629682 0.08361924 0 0 Z " fill="#5C5F63" transform="translate(293.5625,161.9375)"/>
<path d="M0 0 C8 0 8 0 10.5 1.5 C12.61845402 5.03075669 12.56126135 7.98037828 12 12 C10.99124788 14.81009519 10.66604583 15.66697708 8 17 C5.36 17 2.72 17 0 17 C0 11.39 0 5.78 0 0 Z " fill="#FAFAFA" transform="translate(587,160)"/>
<path d="M0 0 C3.375 1.0625 3.375 1.0625 5.3125 2.8125 C6.375 5.0625 6.375 5.0625 6.375 10.0625 C2.415 10.0625 -1.545 10.0625 -5.625 10.0625 C-4.635 11.7125 -3.645 13.3625 -2.625 15.0625 C0.39919525 14.47446203 3.39258453 13.83571882 6.375 13.0625 C4.5 16.9375 4.5 16.9375 3.375 18.0625 C-3.62687149 18.63642389 -3.62687149 18.63642389 -7.125 16.625 C-9.3683082 12.79268182 -9.50070114 9.38723458 -8.625 5.0625 C-5.97979115 1.0546078 -4.83605044 0.08338018 0 0 Z " fill="#5F6266" transform="translate(453.625,161.9375)"/>
<path d="M0 0 C4.89731793 1.54174824 4.89731793 1.54174824 6.375 4.0625 C6.375 6.0425 6.375 8.0225 6.375 10.0625 C2.415 10.0625 -1.545 10.0625 -5.625 10.0625 C-4.635 11.7125 -3.645 13.3625 -2.625 15.0625 C0.00194422 15.48030879 0.00194422 15.48030879 2.375 15.0625 C2.705 14.4025 3.035 13.7425 3.375 13.0625 C4.365 13.0625 5.355 13.0625 6.375 13.0625 C5.5 16.9375 5.5 16.9375 4.375 18.0625 C1.32118141 18.49610507 -1.57448345 18.52647717 -4.625 18.0625 C-7.9139953 15.41525988 -8.50905799 13.77103452 -9.1875 9.625 C-8.2941958 3.96740673 -6.28600921 0.10837947 0 0 Z " fill="#5A5E61" transform="translate(355.625,161.9375)"/>
<path d="M0 0 C0.3324874 3.57423953 0.18208328 5.63583344 -1.4375 8.875 C-4.74068046 11.61422282 -6.80894885 11.48878384 -10.9765625 11.37109375 C-13 11 -13 11 -15 9 C-14.84359209 5.95004583 -14.44814854 4.46474663 -12.3125 2.25 C-8.29901027 0.08054609 -4.50230229 0 0 0 Z " fill="#F1F2F2" transform="translate(496,117)"/>
<path d="M0 0 C2.9375 2.25 2.9375 2.25 5 5 C5 6.32 5 7.64 5 9 C-0.94 9 -6.88 9 -13 9 C-11 3 -11 3 -9.3125 1.125 C-5.95063538 -0.51050171 -3.69096778 -0.51803057 0 0 Z " fill="#E7E8E9" transform="translate(586,102)"/>
<path d="M0 0 C2.875 1.6875 2.875 1.6875 5 4 C5.33 5.65 5.66 7.3 6 9 C0.06 9 -5.88 9 -12 9 C-10.48005275 1.40026373 -7.89383104 -1.10790611 0 0 Z " fill="#E7E9E8" transform="translate(308,102)"/>
<path d="M0 0 C1.11375 0.33 2.2275 0.66 3.375 1 C4.035 2.32 4.695 3.64 5.375 5 C2.405 4.67 -0.565 4.34 -3.625 4 C-3.295 4.99 -2.965 5.98 -2.625 7 C-0.30652126 7.7166207 2.02819703 8.38242027 4.375 9 C5.035 9.66 5.695 10.32 6.375 11 C6.04528521 14.29714793 5.7523161 15.6226839 3.375 18 C1.28125 18.265625 1.28125 18.265625 -1.125 18.25 C-1.9190625 18.25515625 -2.713125 18.2603125 -3.53125 18.265625 C-5.625 18 -5.625 18 -7.625 16 C-7.625 15.01 -7.625 14.02 -7.625 13 C-6.635 13 -5.645 13 -4.625 13 C-4.295 13.66 -3.965 14.32 -3.625 15 C-1.975 15 -0.325 15 1.375 15 C1.375 14.01 1.375 13.02 1.375 12 C0.80910156 11.84144531 0.24320312 11.68289062 -0.33984375 11.51953125 C-2.55108658 10.81613063 -4.57222385 10.08448551 -6.625 9 C-7.875 6.5625 -7.875 6.5625 -7.625 4 C-5.3613904 0.41595147 -4.2684997 0 0 0 Z " fill="#5D6064" transform="translate(482.625,162)"/>
<path d="M0 0 C5.94 0 11.88 0 18 0 C18 0.99 18 1.98 18 3 C15.69 3 13.38 3 11 3 C11 9.6 11 16.2 11 23 C10.01 23 9.02 23 8 23 C8 16.4 8 9.8 8 3 C5.36 3 2.72 3 0 3 C0 2.01 0 1.02 0 0 Z " fill="#5D6064" transform="translate(550,157)"/>
<path d="M0 0 C3 -0.375 3 -0.375 6 0 C8.46324069 3.69486103 8.38991688 5.63293092 8 10 C6.875 12 6.875 12 5 13 C1.875 12.8125 1.875 12.8125 -1 12 C-2.50934217 8.98131566 -2.17510672 6.32702771 -2 3 C-1.34 2.01 -0.68 1.02 0 0 Z " fill="#F3F3F5" transform="translate(290,165)"/>
<path d="M0 0 C2.42522207 2.42522207 2.29629254 3.1720679 2.3125 6.5 C2.33763672 7.69109375 2.33763672 7.69109375 2.36328125 8.90625 C2.24339844 9.5971875 2.12351562 10.288125 2 11 C-1 13 -1 13 -3.5625 12.8125 C-6 12 -6 12 -8 9 C-8.32855599 5.84586249 -8.53501881 3.84476654 -6.8125 1.125 C-4.38241919 -0.38332602 -2.80984248 -0.36023622 0 0 Z " fill="#F1F1F2" transform="translate(327,165)"/>
<path d="M0 0 C0.99 0 1.98 0 3 0 C3 6.6 3 13.2 3 20 C6.63 20 10.26 20 14 20 C14 20.99 14 21.98 14 23 C9.38 23 4.76 23 0 23 C0 15.41 0 7.82 0 0 Z " fill="#606267" transform="translate(525,157)"/>
<path d="M0 0 C6.40818182 -0.36272727 6.40818182 -0.36272727 8.9375 1.1875 C10.36405327 3.62103204 10.35571424 5.22542896 10 8 C8 10 8 10 6.0546875 10.1953125 C4.03645833 10.13020833 2.01822917 10.06510417 0 10 C0 6.7 0 3.4 0 0 Z " fill="#EEEEEE" transform="translate(233,159)"/>
<path d="M0 0 C0.99 0 1.98 0 3 0 C3 1.32 3 2.64 3 4 C4.32 4 5.64 4 7 4 C7 4.99 7 5.98 7 7 C5.68 7 4.36 7 3 7 C3 10.96 3 14.92 3 19 C3.99 19 4.98 19 6 19 C6 19.99 6 20.98 6 22 C1.125 21.125 1.125 21.125 0 20 C-0.07258946 17.81360547 -0.08373783 15.62499611 -0.0625 13.4375 C-0.05347656 12.23996094 -0.04445313 11.04242188 -0.03515625 9.80859375 C-0.02355469 8.88175781 -0.01195312 7.95492187 0 7 C-0.99 7 -1.98 7 -3 7 C-3 6.34 -3 5.68 -3 5 C-2.01 5 -1.02 5 0 5 C0 3.35 0 1.7 0 0 Z " fill="#5E6165" transform="translate(404,158)"/>
<path d="M0 0 C3.4375 0.8125 3.4375 0.8125 5.4375 3.8125 C4.7775 3.8125 4.1175 3.8125 3.4375 3.8125 C3.4375 5.1325 3.4375 6.4525 3.4375 7.8125 C1.81259046 7.83948189 0.18755367 7.85888757 -1.4375 7.875 C-2.79488281 7.89240234 -2.79488281 7.89240234 -4.1796875 7.91015625 C-6.5625 7.8125 -6.5625 7.8125 -8.5625 6.8125 C-6.86720903 1.85703408 -5.65256191 -0.29750326 0 0 Z " fill="#64686B" transform="translate(453.5625,162.1875)"/>
<path d="M0 0 C1.32 0.33 2.64 0.66 4 1 C6.68149993 0.61432869 6.68149993 0.61432869 9 0 C9 0.99 9 1.98 9 3 C7.35 3.66 5.7 4.32 4 5 C3.67 9.29 3.34 13.58 3 18 C2.01 18 1.02 18 0 18 C0 12.06 0 6.12 0 0 Z " fill="#595D60" transform="translate(378,162)"/>
<path d="M0 0 C1.32 0.33 2.64 0.66 4 1 C6.68149993 0.61432869 6.68149993 0.61432869 9 0 C9 0.99 9 1.98 9 3 C7.35 3.66 5.7 4.32 4 5 C3.67 9.29 3.34 13.58 3 18 C2.01 18 1.02 18 0 18 C0 12.06 0 6.12 0 0 Z " fill="#595C60" transform="translate(262,162)"/>
<path d="M0 0 C2.12472576 -0.05386629 4.24983652 -0.09273071 6.375 -0.125 C7.55835938 -0.14820313 8.74171875 -0.17140625 9.9609375 -0.1953125 C13 0 13 0 15 2 C15.125 5.625 15.125 5.625 15 9 C14.34 8.67 13.68 8.34 13 8 C13 6.68 13 5.36 13 4 C9.46588679 1.87953208 6.05606165 1.46800711 2 1 C2 4.3 2 7.6 2 11 C4.31 11 6.62 11 9 11 C9 11.33 9 11.66 9 12 C6.03 12 3.06 12 0 12 C0 8.04 0 4.08 0 0 Z " fill="#54575B" transform="translate(231,158)"/>
<path d="M0 0 C3.96 0 7.92 0 12 0 C12 0.66 12 1.32 12 2 C9.36 2 6.72 2 4 2 C4 7.94 4 13.88 4 20 C3.67 20 3.34 20 3 20 C2.67 14.39 2.34 8.78 2 3 C1.67 9.6 1.34 16.2 1 23 C0.67 23 0.34 23 0 23 C0 15.41 0 7.82 0 0 Z " fill="#808285" transform="translate(583,157)"/>
<path d="M0 0 C0.33 0 0.66 0 1 0 C1 1.65 1 3.3 1 5 C1.66 5 2.32 5 3 5 C1.25 9.875 1.25 9.875 -1 11 C-3.3329866 11.04022391 -5.66706666 11.04320247 -8 11 C-8.33 13.31 -8.66 15.62 -9 18 C-9.33 18 -9.66 18 -10 18 C-10.33 14.04 -10.66 10.08 -11 6 C-10.34 5.67 -9.68 5.34 -9 5 C-8.01 6.485 -8.01 6.485 -7 8 C-5.02 7.67 -3.04 7.34 -1 7 C-0.67 4.69 -0.34 2.38 0 0 Z " fill="#6A6D70" transform="translate(329,169)"/>
<path d="M0 0 C0.99 0 1.98 0 3 0 C3 5.94 3 11.88 3 18 C2.01 18 1.02 18 0 18 C0 12.06 0 6.12 0 0 Z " fill="#56595D" transform="translate(426,162)"/>
<path d="M0 0 C1.5778125 0.4021875 1.5778125 0.4021875 3.1875 0.8125 C2.8575 1.8025 2.5275 2.7925 2.1875 3.8125 C0.2075 3.8125 -1.7725 3.8125 -3.8125 3.8125 C-4.080625 4.92625 -4.34875 6.04 -4.625 7.1875 C-5.8125 10.8125 -5.8125 10.8125 -8.8125 12.8125 C-9.41468978 5.70666058 -9.41468978 5.70666058 -6.75 1.75 C-3.8125 -0.1875 -3.8125 -0.1875 0 0 Z " fill="#636669" transform="translate(293.8125,162.1875)"/>
<path d="M0 0 C2 3 2 3 1.6875 4.875 C1.460625 5.57625 1.23375 6.2775 1 7 C0.65939189 8.66519519 0.32441604 10.33157466 0 12 C-0.33 12 -0.66 12 -1 12 C-1.66 8.7 -2.32 5.4 -3 2 C-6.3 1.34 -9.6 0.68 -13 0 C-13 -0.33 -13 -0.66 -13 -1 C-4.22763158 -2.48684211 -4.22763158 -2.48684211 0 0 Z " fill="#67696D" transform="translate(600,160)"/>
<path d="M0 0 C0.99 0.33 1.98 0.66 3 1 C3 2.65 3 4.3 3 6 C-1.95 6 -6.9 6 -12 6 C-11.67 4.68 -11.34 3.36 -11 2 C-10.67 2.66 -10.34 3.32 -10 4 C-6.7 4 -3.4 4 0 4 C0 2.68 0 1.36 0 0 Z " fill="#535659" transform="translate(457,166)"/>
<path d="M0 0 C0.66 0 1.32 0 2 0 C1.125 4.875 1.125 4.875 0 6 C-1.99609375 6.16796875 -1.99609375 6.16796875 -4.4375 6.1875 C-5.64212891 6.20876953 -5.64212891 6.20876953 -6.87109375 6.23046875 C-9 6 -9 6 -11 4 C-11 3.01 -11 2.02 -11 1 C-10.01 1 -9.02 1 -8 1 C-7.67 1.66 -7.34 2.32 -7 3 C-4.58380177 3.25030977 -4.58380177 3.25030977 -2 3 C-1.34 2.01 -0.68 1.02 0 0 Z " fill="#5C5F62" transform="translate(486,174)"/>
<path d="M0 0 C0.66 1.65 1.32 3.3 2 5 C-1.3 5 -4.6 5 -8 5 C-7.67 3.68 -7.34 2.36 -7 1 C-4.53721199 -0.231394 -2.7204945 -0.07159196 0 0 Z " fill="#E9E8EA" transform="translate(358,165)"/>
<path d="M0 0 C2.5625 0.1875 2.5625 0.1875 4.5625 2.1875 C4.5625 3.1775 4.5625 4.1675 4.5625 5.1875 C1.5925 5.1875 -1.3775 5.1875 -4.4375 5.1875 C-3.20220588 0.24632353 -3.20220588 0.24632353 0 0 Z " fill="#F1F1F1" transform="translate(452.4375,164.8125)"/>
<path d="M0 0 C5.4 -0.36 5.4 -0.36 7.875 1.125 C9.4682099 3.78034983 9.20214032 5.96789518 9 9 C5.37 9 1.74 9 -2 9 C-2 8.67 -2 8.34 -2 8 C0.97 8 3.94 8 7 8 C6.36078035 5.52372901 6.36078035 5.52372901 5 3 C2.47627099 1.63921965 2.47627099 1.63921965 0 1 C0 0.67 0 0.34 0 0 Z " fill="#464B4E" transform="translate(353,163)"/>
<path d="M0 0 C0.33 0 0.66 0 1 0 C1 4.95 1 9.9 1 15 C-1.97 15 -4.94 15 -8 15 C-8 14.34 -8 13.68 -8 13 C-5.69 13 -3.38 13 -1 13 C-0.67 8.71 -0.34 4.42 0 0 Z " fill="#353D44" transform="translate(97,96)"/>
<path d="M0 0 C6.46153846 0.46153846 6.46153846 0.46153846 9 3 C8.625 5.125 8.625 5.125 8 7 C8 6.01 8 5.02 8 4 C7.34 4 6.68 4 6 4 C5.67 4.66 5.34 5.32 5 6 C4.67 5.34 4.34 4.68 4 4 C2.02111039 3.27306096 0.02045442 2.60183749 -2 2 C-1.34 1.34 -0.68 0.68 0 0 Z " fill="#737678" transform="translate(480,170)"/>
<path d="M0 0 C3 3.75 3 3.75 3 6 C5.97 6.495 5.97 6.495 9 7 C9 7.66 9 8.32 9 9 C3.6 9.36 3.6 9.36 1.125 7.875 C-0.4682099 5.21965017 -0.20214032 3.03210482 0 0 Z " fill="#494D51" transform="translate(286,171)"/>
<path d="M0 0 C0.99 0 1.98 0 3 0 C1.125 3.875 1.125 3.875 0 5 C-2.33297433 5.04092937 -4.66705225 5.04241723 -7 5 C-7 4.34 -7 3.68 -7 3 C-5.5459375 2.5359375 -5.5459375 2.5359375 -4.0625 2.0625 C-1.15934208 1.30476658 -1.15934208 1.30476658 0 0 Z " fill="#575B5E" transform="translate(457,175)"/>
<path d="M0 0 C0.22429688 0.64453125 0.44859375 1.2890625 0.6796875 1.953125 C1.82889456 4.24388852 1.82889456 4.24388852 4.3828125 4.609375 C5.74019531 4.67898437 5.74019531 4.67898437 7.125 4.75 C8.03507813 4.80671875 8.94515625 4.8634375 9.8828125 4.921875 C10.58148437 4.94765625 11.28015625 4.9734375 12 5 C12 5.33 12 5.66 12 6 C7.71 6 3.42 6 -1 6 C-1 1 -1 1 0 0 Z " fill="#474B50" transform="translate(526,173)"/>
<path d="M0 0 C1.485 0.99 1.485 0.99 3 2 C3.40843923 4.71203652 3.13336867 7.2437142 3 10 C2.01 10.495 2.01 10.495 1 11 C0.67 7.37 0.34 3.74 0 0 Z " fill="#4C5054" transform="translate(297,164)"/>
<path d="M0 0 C0.99 0 1.98 0 3 0 C3.1875 2.875 3.1875 2.875 3 6 C2.01 6.66 1.02 7.32 0 8 C0 5.36 0 2.72 0 0 Z " fill="#585C5F" transform="translate(285,167)"/>
<path d="M0 0 C0.99 0.33 1.98 0.66 3 1 C-0.465 3.97 -0.465 3.97 -4 7 C-3.04065919 3.16263678 -2.76390737 2.40339772 0 0 Z " fill="#27323A" transform="translate(569,97)"/>
</svg>
